<svg xmlns="http://www.w3.org/2000/svg" viewBox="0 0 12.73 14.73"><defs><style>.cls-1{fill:#dedede;}</style></defs><title>copy</title><g id="Layer_2" data-name="Layer 2"><g id="Layer_1-2" data-name="Layer 1"><path class="cls-1" d="M10.08,3H9.73V2.65A2.65,2.65,0,0,0,7.08,0H2.65A2.65,2.65,0,0,0,0,2.65V9.08a2.65,2.65,0,0,0,2.65,2.65H3v.35a2.65,2.65,0,0,0,2.65,2.65h4.43a2.65,2.65,0,0,0,2.65-2.65V5.65A2.65,2.65,0,0,0,10.08,3ZM2.65,10a.92.92,0,0,1-.92-.92V2.65a.92.92,0,0,1,.92-.92H7.08A.92.92,0,0,1,8,2.65V3H5.65A2.65,2.65,0,0,0,3,5.65V10ZM11,12.08a.92.92,0,0,1-.92.92H5.65a.92.92,0,0,1-.92-.92V5.65a.92.92,0,0,1,.92-.92h4.43a.92.92,0,0,1,.92.92Z"/></g></g></svg>
