<svg id="Layer_1" data-name="Layer 1" xmlns="http://www.w3.org/2000/svg" viewBox="0 0 59.51 59.51"><defs><style>.cls-1{fill:#3d3d46;}.cls-2{fill:none;}.cls-3{fill:#ec6853;}</style></defs><title>group icons</title><path class="cls-1" d="M527.13-252.37a5.59,5.59,0,0,0,5.59-5.59,5.59,5.59,0,0,0-5.59-5.59,5.59,5.59,0,0,0-5.59,5.59A5.59,5.59,0,0,0,527.13-252.37Zm0-9.46A3.87,3.87,0,0,1,531-258a3.87,3.87,0,0,1-3.87,3.87,3.87,3.87,0,0,1-3.87-3.87A3.87,3.87,0,0,1,527.13-261.83Z" transform="translate(-504.23 278.3)"/><path class="cls-1" d="M540.23-247.37a5,5,0,0,0,5-5,5,5,0,0,0-5-5,5,5,0,0,0-5,5A5,5,0,0,0,540.23-247.37Zm0-8.33a3.31,3.31,0,0,1,3.3,3.3,3.31,3.31,0,0,1-3.3,3.3,3.31,3.31,0,0,1-3.3-3.3A3.31,3.31,0,0,1,540.23-255.7Z" transform="translate(-504.23 278.3)"/><path class="cls-1" d="M541.83-244.62h-1.35a7.35,7.35,0,0,0-4.08,1.24,7.36,7.36,0,0,0-7.26-6.22h-3a7.36,7.36,0,0,0-7.35,7.35v7.84a.86.86,0,0,0,.86.86h28.66a.86.86,0,0,0,.86-.86v-2.87A7.36,7.36,0,0,0,541.83-244.62ZM534-235.27H520.51v-7a5.64,5.64,0,0,1,5.63-5.63h3a5.64,5.64,0,0,1,5.63,5.63v7Zm13.47,0h-11v-6a5.64,5.64,0,0,1,4-1.66h1.35a5.64,5.64,0,0,1,5.63,5.63Z" transform="translate(-504.23 278.3)"/><rect class="cls-2" width="59.51" height="59.51"/><path class="cls-3" d="M538.58-272.92a2.12,2.12,0,0,1,1.82.91,4.15,4.15,0,0,1,.66,2.48,4.08,4.08,0,0,1-.68,2.51,2.19,2.19,0,0,1-1.84.89,2.17,2.17,0,0,1-1.81-.84h-.12l-.3.72h-1.37v-9.12h1.79v2.12q0,.4-.07,1.29h.07A2.07,2.07,0,0,1,538.58-272.92Zm-.57,1.43a1.13,1.13,0,0,0-1,.41,2.34,2.34,0,0,0-.32,1.34v.19A2.76,2.76,0,0,0,537-268a1.12,1.12,0,0,0,1,.46,1,1,0,0,0,.88-.51,2.74,2.74,0,0,0,.33-1.47,2.6,2.6,0,0,0-.33-1.45A1,1,0,0,0,538-271.49Z" transform="translate(-504.23 278.3)"/><path class="cls-3" d="M545.5-266.13A3.38,3.38,0,0,1,543-267a3.31,3.31,0,0,1-.89-2.47A3.64,3.64,0,0,1,543-272a2.93,2.93,0,0,1,2.28-.9,2.89,2.89,0,0,1,2.16.79,3,3,0,0,1,.77,2.19v.87h-4.22a1.72,1.72,0,0,0,.45,1.19,1.59,1.59,0,0,0,1.18.43,4.91,4.91,0,0,0,1.12-.12,5.6,5.6,0,0,0,1.1-.39v1.38a4.2,4.2,0,0,1-1,.35A6.32,6.32,0,0,1,545.5-266.13Zm-.25-5.52a1.13,1.13,0,0,0-.89.36,1.67,1.67,0,0,0-.37,1h2.51a1.49,1.49,0,0,0-.35-1A1.17,1.17,0,0,0,545.24-271.65Z" transform="translate(-504.23 278.3)"/><path class="cls-3" d="M552.38-267.56a3.87,3.87,0,0,0,1.13-.21v1.33a4,4,0,0,1-1.64.3,2,2,0,0,1-1.56-.54,2.36,2.36,0,0,1-.49-1.63v-3.16H549v-.76l1-.6.52-1.38h1.14v1.39h1.83v1.34H551.6v3.16a.7.7,0,0,0,.21.56A.84.84,0,0,0,552.38-267.56Z" transform="translate(-504.23 278.3)"/><path class="cls-3" d="M559-266.25l-.35-.89h0a2.64,2.64,0,0,1-.93.79,3,3,0,0,1-1.25.22,2,2,0,0,1-1.49-.54,2.07,2.07,0,0,1-.54-1.54,1.73,1.73,0,0,1,.73-1.54,4.23,4.23,0,0,1,2.2-.55l1.14,0v-.29a.89.89,0,0,0-1-1,4.65,4.65,0,0,0-1.85.47l-.59-1.21a5.33,5.33,0,0,1,2.51-.59,3.12,3.12,0,0,1,2,.57,2.12,2.12,0,0,1,.7,1.75v4.37Zm-.53-3-.69,0a2.21,2.21,0,0,0-1.16.28.88.88,0,0,0-.38.79q0,.76.87.76a1.37,1.37,0,0,0,1-.36,1.26,1.26,0,0,0,.37-.95Z" transform="translate(-504.23 278.3)"/></svg>