<?xml version="1.0" encoding="utf-8"?>
<!-- Generator: Adobe Illustrator 22.0.1, SVG Export Plug-In . SVG Version: 6.00 Build 0)  -->
<svg version="1.1" id="Layer_1" xmlns="http://www.w3.org/2000/svg" xmlns:xlink="http://www.w3.org/1999/xlink" x="0px" y="0px"
	 viewBox="0 0 200 200" style="enable-background:new 0 0 200 200;" xml:space="preserve">
<style type="text/css">
	.st0{fill:#95BB53;}
	.st1{fill:#FFFFFF;}
</style>
<g>
	<path class="st0" d="M195.1,99.6c0,26.3-10.6,50-27.8,67.2c-17.2,17.2-40.9,27.8-67.2,27.8c-26.3,0-50-10.6-67.2-27.8
		C15.8,149.6,5.1,125.9,5.1,99.6c0-26.2,10.6-50,27.8-67.2C50.2,15.3,73.9,4.6,100.2,4.6c26.2,0,50,10.6,67.2,27.8
		C184.5,49.7,195.1,73.4,195.1,99.6z"/>
	<g>
		<path class="st1" d="M100.9,126.5c4,0,7.6-0.8,11.1-2.4c3.4-1.6,6.4-3.7,8.9-6.5c2.5-2.7,4.5-5.9,5.9-9.6
			c1.4-3.6,2.1-7.5,2.1-11.7c0-4.1-0.7-8-2.1-11.7c-1.4-3.6-3.4-6.8-5.9-9.6c-2.5-2.7-5.5-4.9-8.9-6.5c-3.4-1.6-7.1-2.4-11.1-2.4
			c-4.2,0-8.1,0.8-11.6,2.4c-3.6,1.6-6.7,3.7-9.3,6.5c-2.6,2.7-4.7,5.9-6.3,9.6c-1.5,3.6-2.3,7.5-2.3,11.7c0,4.1,0.8,8,2.3,11.7
			c1.5,3.6,3.6,6.8,6.3,9.6c2.6,2.7,5.7,4.9,9.3,6.5C92.8,125.8,96.7,126.5,100.9,126.5 M128.9,133.9c-3,3.6-6.8,6.5-11.6,8.6
			c-4.7,2.2-10.2,3.3-16.5,3.3c-6.3,0-12.3-1.3-18.2-3.9c-5.9-2.6-11.1-6.1-15.6-10.6c-4.5-4.5-8.1-9.7-10.8-15.7
			c-2.7-6-4-12.4-4-19.2c0-6.8,1.3-13.2,4-19.2c2.7-6,6.3-11.2,10.8-15.7c4.5-4.5,9.7-8,15.6-10.6c5.9-2.6,12-3.9,18.2-3.9
			c3,0,5.9,0.4,8.7,1.1c2.8,0.7,5.4,1.7,7.9,2.9c2.5,1.2,4.8,2.6,6.8,4.2c2.1,1.6,3.9,3.2,5.3,4.9c0.8-3.6,1.8-6.3,3.2-8.1
			c1.4-1.8,3.8-2.8,7.2-2.8c2.2,0,4.1,0.8,5.7,2.3c1.6,1.5,2.4,3.6,2.4,6.1v118.7c0,2.9-0.9,5.2-2.7,7c-1.8,1.7-4.1,2.6-6.8,2.6
			c-3,0-5.3-0.9-7-2.6c-1.7-1.7-2.6-4.1-2.6-7V133.9z"/>
	</g>
</g>
</svg>
